<svg width="864" height="587" viewBox="0 0 864 587" fill="none" xmlns="http://www.w3.org/2000/svg">
<path d="M2.57859 244H38.4586C49.5786 244 57.8986 245.52 63.4186 248.56C69.0186 251.52 71.8186 256.56 71.8186 263.68C71.8186 274.64 65.2186 281.2 52.0186 283.36V283.6C68.0186 285.6 76.0186 292.56 76.0186 304.48C76.0186 313.2 72.7386 319.32 66.1786 322.84C59.6186 326.28 50.1786 328 37.8586 328H2.57859V325.72H10.3786V246.28H2.57859V244ZM33.7786 285.52V325.72H39.4186C43.8186 325.72 46.8986 324.2 48.6586 321.16C50.4186 318.12 51.2986 313.64 51.2986 307.72V301.36C51.2986 296.08 50.2186 292.12 48.0586 289.48C45.8986 286.84 42.0586 285.52 36.5386 285.52H33.7786ZM33.7786 246.28V283.24H36.8986C41.0586 283.24 43.9386 282 45.5386 279.52C47.2186 276.96 48.0586 273.08 48.0586 267.88V262.24C48.0586 256.32 47.3386 252.2 45.8986 249.88C44.4586 247.48 41.6986 246.28 37.6186 246.28H33.7786ZM133.367 325.72L124.607 299.8H100.847L91.6073 325.72H100.607V328H82.2473V325.72H87.8873L118.487 243.28H128.327L158.567 325.72H164.087V328H124.847V325.72H133.367ZM113.207 265.72L101.927 297.16H123.647L113.207 265.72ZM210.208 285.52H203.848V325.72H211.648V328H172.648V325.72H180.448V246.28H172.648V244H208.888C219.288 244 226.648 244.56 230.968 245.68C235.368 246.72 238.448 248 240.208 249.52C244.048 252.64 245.968 257.6 245.968 264.4C245.968 271.2 244.288 276.08 240.928 279.04C237.568 281.92 232.448 283.64 225.568 284.2V284.56C232.048 285.44 236.568 287.36 239.128 290.32C241.688 293.28 242.968 298.24 242.968 305.2V311.56C242.968 315.72 243.168 318.52 243.568 319.96C244.048 321.4 245.008 322.12 246.448 322.12C247.888 322.12 249.008 321.48 249.808 320.2C250.688 318.84 251.488 316.04 252.208 311.8L254.248 312.04C253.368 318.84 251.808 323.4 249.568 325.72C247.408 328.04 243.048 329.2 236.488 329.2C229.928 329.2 225.248 327.68 222.448 324.64C219.728 321.52 218.368 315.72 218.368 307.24V298.48C218.368 294 217.768 290.72 216.568 288.64C215.448 286.56 213.328 285.52 210.208 285.52ZM203.848 246.28V283.24H207.688C212.248 283.24 215.608 281.84 217.768 279.04C220.008 276.24 221.128 271.68 221.128 265.36V261.88C221.128 255.56 220.048 251.4 217.888 249.4C215.808 247.32 212.448 246.28 207.808 246.28H203.848ZM265.266 244H301.146C312.266 244 320.586 245.52 326.106 248.56C331.706 251.52 334.506 256.56 334.506 263.68C334.506 274.64 327.906 281.2 314.706 283.36V283.6C330.706 285.6 338.706 292.56 338.706 304.48C338.706 313.2 335.426 319.32 328.866 322.84C322.306 326.28 312.866 328 300.546 328H265.266V325.72H273.066V246.28H265.266V244ZM296.466 285.52V325.72H302.106C306.506 325.72 309.586 324.2 311.346 321.16C313.106 318.12 313.986 313.64 313.986 307.72V301.36C313.986 296.08 312.906 292.12 310.746 289.48C308.586 286.84 304.746 285.52 299.226 285.52H296.466ZM296.466 246.28V283.24H299.586C303.746 283.24 306.626 282 308.226 279.52C309.906 276.96 310.746 273.08 310.746 267.88V262.24C310.746 256.32 310.026 252.2 308.586 249.88C307.146 247.48 304.386 246.28 300.306 246.28H296.466ZM350.368 244H412.768L413.968 267.76H411.808C408.448 259.68 404.928 254.16 401.248 251.2C397.568 248.16 392.168 246.64 385.048 246.64H380.848V283.72H384.928C388.688 283.72 391.848 282.32 394.408 279.52C396.968 276.64 398.768 272.8 399.808 268H401.608V303.52H399.568C398.128 297.52 396.168 293.24 393.688 290.68C391.288 288.12 387.968 286.84 383.728 286.84H380.848V325.36H385.408C392.768 325.36 399.008 323.16 404.128 318.76C409.328 314.36 412.888 308.72 414.808 301.84H417.208L416.248 328H350.368V325.36H357.448V246.64H350.368V244ZM468.09 285.52H461.73V325.72H469.53V328H430.53V325.72H438.33V246.28H430.53V244H466.77C477.17 244 484.53 244.56 488.85 245.68C493.25 246.72 496.33 248 498.09 249.52C501.93 252.64 503.85 257.6 503.85 264.4C503.85 271.2 502.17 276.08 498.81 279.04C495.45 281.92 490.33 283.64 483.45 284.2V284.56C489.93 285.44 494.45 287.36 497.01 290.32C499.57 293.28 500.85 298.24 500.85 305.2V311.56C500.85 315.72 501.05 318.52 501.45 319.96C501.93 321.4 502.89 322.12 504.33 322.12C505.77 322.12 506.89 321.48 507.69 320.2C508.57 318.84 509.37 316.04 510.09 311.8L512.13 312.04C511.25 318.84 509.69 323.4 507.45 325.72C505.29 328.04 500.93 329.2 494.37 329.2C487.81 329.2 483.13 327.68 480.33 324.64C477.61 321.52 476.25 315.72 476.25 307.24V298.48C476.25 294 475.65 290.72 474.45 288.64C473.33 286.56 471.21 285.52 468.09 285.52ZM461.73 246.28V283.24H465.57C470.13 283.24 473.49 281.84 475.65 279.04C477.89 276.24 479.01 271.68 479.01 265.36V261.88C479.01 255.56 477.93 251.4 475.77 249.4C473.69 247.32 470.33 246.28 465.69 246.28H461.73ZM557.285 326.68C561.285 326.68 564.805 325.6 567.845 323.44C570.965 321.28 572.525 318.04 572.525 313.72C572.525 309.32 570.845 305.96 567.485 303.64C564.205 301.32 559.485 299.32 553.325 297.64C547.245 295.88 542.805 294.36 540.005 293.08C537.285 291.8 534.685 290.12 532.205 288.04C527.245 283.88 524.765 277.44 524.765 268.72C524.765 261.6 527.285 255.48 532.325 250.36C537.445 245.24 544.405 242.68 553.205 242.68C557.445 242.68 561.845 243.32 566.405 244.6C571.045 245.8 573.925 246.4 575.045 246.4C576.165 246.4 577.165 245.6 578.045 244H579.365L580.205 268.24H578.285C574.445 261.28 570.405 255.72 566.165 251.56C562.005 247.32 557.445 245.2 552.485 245.2C547.605 245.2 543.805 246.36 541.085 248.68C538.365 250.92 537.005 253.96 537.005 257.8C537.005 261.56 538.605 264.48 541.805 266.56C545.085 268.56 549.085 270.2 553.805 271.48C558.525 272.76 561.605 273.64 563.045 274.12C564.565 274.6 566.405 275.28 568.565 276.16C570.805 276.96 572.605 277.84 573.965 278.8C575.405 279.68 576.885 280.84 578.405 282.28C580.005 283.64 581.245 285.16 582.125 286.84C584.285 290.68 585.365 295.24 585.365 300.52C585.365 309.16 582.645 316.12 577.205 321.4C571.845 326.6 564.765 329.2 555.965 329.2C551.405 329.2 546.165 328.6 540.245 327.4C534.405 326.2 531.165 325.6 530.525 325.6C529.405 325.6 528.325 326.8 527.285 329.2H525.605L524.405 300.64H526.445C529.965 307.6 534.445 313.68 539.885 318.88C545.405 324.08 551.205 326.68 557.285 326.68ZM598.758 244H636.198V246.28H629.238V283.48H653.118V246.28H646.038V244H683.598V246.28H676.518V325.72H683.598V328H646.038V325.72H653.118V286.6H629.238V325.72H636.198V328H598.758V325.72H605.838V246.28H598.758V244ZM752.241 290.92V282.04C752.241 267.4 751.521 258.16 750.081 254.32C748.481 249.92 746.201 247.2 743.241 246.16C741.561 245.52 739.521 245.2 737.121 245.2C734.721 245.2 732.641 245.52 730.881 246.16C729.201 246.8 727.801 247.92 726.681 249.52C725.561 251.12 724.641 252.8 723.921 254.56C723.281 256.32 722.761 258.8 722.361 262C721.881 266.64 721.641 273.48 721.641 282.52V291.16C721.641 300.92 722.001 307.88 722.721 312.04C723.521 316.12 724.481 319.04 725.601 320.8C728.081 324.72 731.921 326.68 737.121 326.68C743.441 326.68 747.521 324.04 749.361 318.76C751.281 313.4 752.241 304.12 752.241 290.92ZM736.881 329.2C723.521 329.2 713.521 325.6 706.881 318.4C700.321 311.12 697.041 300.64 697.041 286.96C697.041 273.2 700.561 262.4 707.601 254.56C714.721 246.64 724.761 242.68 737.721 242.68C750.681 242.68 760.441 246.44 767.001 253.96C773.641 261.4 776.961 272 776.961 285.76C776.961 299.52 773.601 310.2 766.881 317.8C760.241 325.4 750.241 329.2 736.881 329.2ZM789.687 244H824.967C837.047 244 846.047 245.76 851.967 249.28C857.887 252.72 860.847 258.92 860.847 267.88C860.847 277.8 857.247 284.64 850.047 288.4C843.327 291.84 833.927 293.56 821.847 293.56H820.887V325.72H835.887V328H789.687V325.72H797.487V246.28H789.687V244ZM820.887 246.28V291.28H823.407C828.207 291.28 831.527 289.64 833.367 286.36C835.207 283.08 836.127 277.76 836.127 270.4V264.64C836.127 257.84 835.247 253.08 833.487 250.36C831.807 247.64 828.687 246.28 824.127 246.28H820.887Z" fill="white"/>
<path d="M220.941 533.577H229.941V536.577H224.241V542.127H228.771V545.127H224.241V551.577H229.941V554.577H220.941V533.577ZM236.188 554.877C234.588 554.877 233.378 554.427 232.558 553.527C231.738 552.607 231.328 551.297 231.328 549.597V548.397H234.448V549.837C234.448 551.197 235.018 551.877 236.158 551.877C236.718 551.877 237.138 551.717 237.418 551.397C237.718 551.057 237.868 550.517 237.868 549.777C237.868 548.897 237.668 548.127 237.268 547.467C236.868 546.787 236.128 545.977 235.048 545.037C233.688 543.837 232.738 542.757 232.198 541.797C231.658 540.817 231.388 539.717 231.388 538.497C231.388 536.837 231.808 535.557 232.648 534.657C233.488 533.737 234.708 533.277 236.308 533.277C237.888 533.277 239.078 533.737 239.878 534.657C240.698 535.557 241.108 536.857 241.108 538.557V539.427H237.988V538.347C237.988 537.627 237.848 537.107 237.568 536.787C237.288 536.447 236.878 536.277 236.338 536.277C235.238 536.277 234.688 536.947 234.688 538.287C234.688 539.047 234.888 539.757 235.288 540.417C235.708 541.077 236.458 541.877 237.538 542.817C238.918 544.017 239.868 545.107 240.388 546.087C240.908 547.067 241.168 548.217 241.168 549.537C241.168 551.257 240.738 552.577 239.878 553.497C239.038 554.417 237.808 554.877 236.188 554.877ZM245.641 536.577H242.191V533.577H252.391V536.577H248.941V554.577H245.641V536.577ZM251.791 551.397H254.971V554.577H251.791V551.397Z" fill="#E9C664"/>
<path d="M566.099 552.297C566.099 550.797 566.339 549.517 566.819 548.457C567.299 547.377 568.159 546.187 569.399 544.887C570.619 543.587 571.459 542.477 571.919 541.557C572.399 540.637 572.639 539.677 572.639 538.677C572.639 537.777 572.489 537.157 572.189 536.817C571.909 536.457 571.489 536.277 570.929 536.277C569.789 536.277 569.219 536.967 569.219 538.347V540.597H566.099V538.557C566.099 536.857 566.519 535.557 567.359 534.657C568.199 533.737 569.419 533.277 571.019 533.277C572.619 533.277 573.839 533.737 574.679 534.657C575.519 535.557 575.939 536.857 575.939 538.557C575.939 539.837 575.629 541.087 575.009 542.307C574.409 543.527 573.359 544.927 571.859 546.507C570.879 547.547 570.219 548.397 569.879 549.057C569.539 549.697 569.369 550.387 569.369 551.127V551.577H575.639V554.577H566.099V552.297ZM582.941 554.877C581.321 554.877 580.081 554.417 579.221 553.497C578.361 552.577 577.931 551.277 577.931 549.597V538.557C577.931 536.877 578.361 535.577 579.221 534.657C580.081 533.737 581.321 533.277 582.941 533.277C584.561 533.277 585.801 533.737 586.661 534.657C587.521 535.577 587.951 536.877 587.951 538.557V549.597C587.951 551.277 587.521 552.577 586.661 553.497C585.801 554.417 584.561 554.877 582.941 554.877ZM582.941 551.877C584.081 551.877 584.651 551.187 584.651 549.807V538.347C584.651 536.967 584.081 536.277 582.941 536.277C581.801 536.277 581.231 536.967 581.231 538.347V549.807C581.231 551.187 581.801 551.877 582.941 551.877ZM590.123 552.297C590.123 550.797 590.363 549.517 590.843 548.457C591.323 547.377 592.183 546.187 593.423 544.887C594.643 543.587 595.483 542.477 595.943 541.557C596.423 540.637 596.663 539.677 596.663 538.677C596.663 537.777 596.513 537.157 596.213 536.817C595.933 536.457 595.513 536.277 594.953 536.277C593.813 536.277 593.243 536.967 593.243 538.347V540.597H590.123V538.557C590.123 536.857 590.543 535.557 591.383 534.657C592.223 533.737 593.443 533.277 595.043 533.277C596.643 533.277 597.863 533.737 598.703 534.657C599.543 535.557 599.963 536.857 599.963 538.557C599.963 539.837 599.653 541.087 599.033 542.307C598.433 543.527 597.383 544.927 595.883 546.507C594.903 547.547 594.243 548.397 593.903 549.057C593.563 549.697 593.393 550.387 593.393 551.127V551.577H599.663V554.577H590.123V552.297ZM607.714 550.767H601.414V547.767L607.414 533.577H611.014V547.767H612.574V550.767H611.014V554.577H607.714V550.767ZM607.714 547.767V539.577H607.654L604.414 547.767H607.714Z" fill="#E9C664"/>
<path d="M420.485 76.7522C421.885 76.7523 423.02 77.8863 423.02 79.2844C423.02 80.6825 421.885 81.8166 420.485 81.8167C419.086 81.8167 417.951 80.6826 417.951 79.2844C417.951 77.8862 419.086 76.7522 420.485 76.7522Z" fill="#BE9359" stroke="#E9C664"/>
<path d="M409.043 19.6483C409.045 15.6963 407.718 11.8583 405.277 8.74955C402.835 5.64079 399.42 3.44132 395.578 2.50371C391.737 1.56611 387.692 1.94469 384.091 3.57875C380.491 5.21281 377.543 8.00771 375.722 11.5154C373.9 15.0232 373.31 19.0405 374.045 22.9236C374.781 26.8066 376.799 30.3305 379.778 32.9302C382.756 35.5299 386.522 37.0549 390.471 37.2608C394.42 37.4667 398.323 36.3415 401.556 34.0656C403.869 32.4377 405.756 30.2783 407.059 27.7693C408.362 25.2603 409.042 22.4751 409.043 19.6483Z" stroke="#E9C664" stroke-width="4" stroke-linecap="round" stroke-linejoin="round"/>
<path d="M466.826 19.6512C466.825 16.1647 465.79 12.7568 463.851 9.85837C461.912 6.95995 459.156 4.70116 455.933 3.36756C452.71 2.03397 449.163 1.68544 445.742 2.36606C442.32 3.04669 439.177 4.72591 436.711 7.1914C434.244 9.65689 432.564 12.798 431.883 16.2175C431.203 19.637 431.552 23.1814 432.887 26.4027C434.221 29.6239 436.482 32.3773 439.382 34.3148C442.283 36.2523 445.693 37.2868 449.181 37.2876C451.499 37.2883 453.794 36.8325 455.935 35.9464C458.076 35.0603 460.022 33.7612 461.66 32.1234C463.299 30.4855 464.599 28.541 465.485 26.401C466.371 24.261 466.827 21.9674 466.826 19.6512V19.6512Z" stroke="#E9C664" stroke-width="4" stroke-linecap="round" stroke-linejoin="round"/>
<path d="M449.574 148.863C449.572 145.412 449.086 141.978 448.129 138.661L430.829 78.6546L424.77 57.6172C423.627 58.0093 422.426 58.2082 421.217 58.2059C420.907 58.2083 420.598 58.194 420.289 58.1629V58.1629C418.465 58.0052 416.707 57.4003 415.172 56.4018C413.637 55.4033 412.372 54.042 411.489 52.4384L401.374 34.1924C398.432 36.2142 394.945 37.2947 391.374 37.2905L409.749 78.6655L420.297 102.318L447.032 162.282C448.708 158.006 449.57 153.455 449.574 148.863V148.863Z" stroke="#E9C664" stroke-width="4" stroke-linecap="round" stroke-linejoin="round"/>
<path d="M451.452 37.1357C447.733 37.6224 443.955 36.9077 440.67 35.0959L424.777 57.6154L431.29 80.2287L451.452 37.1357Z" stroke="#E9C664" stroke-width="4" stroke-linecap="round" stroke-linejoin="round"/>
<path d="M420.45 102.646L409.75 78.6609L392.265 138.661C389.992 146.439 390.382 154.754 393.373 162.285L420.45 102.646Z" stroke="#E9C664" stroke-width="4" stroke-linecap="round" stroke-linejoin="round"/>
<path d="M319.26 83.7535C320.365 83.7415 321.251 82.8363 321.239 81.7316C321.227 80.627 320.321 79.7412 319.217 79.7531L319.238 81.7533L319.26 83.7535ZM205.763 82.9814L205.741 80.9813C205.208 80.987 204.7 81.205 204.329 81.5868C203.957 81.9687 203.754 82.4829 203.763 83.0154L205.763 82.9814ZM205.258 170.937C205.277 172.042 206.188 172.922 207.292 172.903C208.397 172.885 209.277 171.974 209.258 170.869L207.258 170.903L205.258 170.937ZM205.763 82.9814L203.763 83.0154L205.258 170.937L207.258 170.903L209.258 170.869L207.763 82.9475L205.763 82.9814ZM319.238 81.7533L319.217 79.7531L262.479 80.3672L262.501 82.3674L262.522 84.3675L319.26 83.7535L319.238 81.7533ZM262.501 82.3674L262.479 80.3672L205.741 80.9813L205.763 82.9814L205.784 84.9816L262.522 84.3675L262.501 82.3674Z" fill="#E9C664" fill-opacity="0.913725"/>
<path d="M518.155 86.2402H631.624V174.162" stroke="#E9C664" stroke-opacity="0.913725" stroke-width="4" stroke-linecap="round" stroke-linejoin="round"/>
<path d="M207.649 391.548V489.974L422.24 584L632.91 489.974V391.548" stroke="#E9C664" stroke-opacity="0.913725" stroke-width="4" stroke-linecap="round"/>
<path d="M268.782 496.357V489.197H269.262C269.956 491.517 270.889 493.143 272.062 494.077C273.236 495.01 274.702 495.477 276.462 495.477C279.182 495.477 280.542 494.61 280.542 492.877C280.542 492.13 280.209 491.57 279.542 491.197C278.502 490.61 277.169 490.157 275.542 489.837C273.729 489.357 272.209 488.717 270.982 487.917C269.516 486.957 268.782 485.437 268.782 483.357C268.782 481.277 269.422 479.623 270.702 478.397C271.982 477.143 273.689 476.517 275.822 476.517C277.129 476.517 278.476 476.823 279.862 477.437C280.369 477.65 280.756 477.757 281.022 477.757C281.289 477.757 281.516 477.663 281.702 477.477C281.889 477.29 282.116 476.943 282.382 476.437H282.822V482.557H282.342C280.982 479.09 278.876 477.357 276.022 477.357C274.769 477.357 273.836 477.583 273.222 478.037C272.609 478.463 272.302 479.01 272.302 479.677C272.302 480.077 272.396 480.397 272.582 480.637C272.769 480.85 272.916 481.01 273.022 481.117C273.129 481.223 273.302 481.343 273.542 481.477C273.782 481.583 273.982 481.677 274.142 481.757C274.302 481.81 274.542 481.89 274.862 481.997C275.209 482.103 275.462 482.17 275.622 482.197C277.436 482.65 278.742 483.05 279.542 483.397C280.342 483.717 281.102 484.117 281.822 484.597C283.289 485.61 284.022 487.25 284.022 489.517C284.022 491.757 283.356 493.463 282.022 494.637C280.689 495.783 278.862 496.357 276.542 496.357C274.889 496.357 273.289 495.97 271.742 495.197C271.422 494.983 271.169 494.877 270.982 494.877C270.396 494.877 269.822 495.37 269.262 496.357H268.782ZM285.206 465.957H294.846V480.597C295.273 479.37 295.926 478.383 296.806 477.637C297.686 476.89 299.019 476.517 300.806 476.517C304.939 476.517 307.006 478.743 307.006 483.197V495.237H309.246V495.957H297.926V495.237H299.566V482.237C299.566 480.637 299.459 479.61 299.246 479.157C299.033 478.677 298.646 478.437 298.086 478.437C297.233 478.437 296.473 478.997 295.806 480.117C295.166 481.237 294.846 482.597 294.846 484.197V495.237H296.566V495.957H285.206V495.237H287.406V466.677H285.206V465.957ZM319.455 486.557H320.615V483.477C320.615 480.943 320.468 479.25 320.175 478.397C319.908 477.517 319.375 477.077 318.575 477.077C318.095 477.077 317.655 477.21 317.255 477.477C316.881 477.717 316.695 478.063 316.695 478.517C316.695 478.943 316.775 479.383 316.935 479.837H317.935C318.148 480.397 318.255 481.077 318.255 481.877C318.255 482.65 317.921 483.33 317.255 483.917C316.588 484.477 315.748 484.757 314.735 484.757C312.441 484.757 311.295 483.65 311.295 481.437C311.295 478.157 314.081 476.517 319.655 476.517C322.828 476.517 325.015 477.063 326.215 478.157C327.441 479.223 328.055 481.197 328.055 484.077V492.197C328.055 493.583 328.441 494.277 329.215 494.277C330.121 494.277 330.655 492.903 330.815 490.157L331.415 490.197C331.308 492.543 330.868 494.157 330.095 495.037C329.321 495.917 328.055 496.357 326.295 496.357C323.095 496.357 321.255 495.37 320.775 493.397C320.428 494.41 319.908 495.157 319.215 495.637C318.521 496.117 317.508 496.357 316.175 496.357C312.228 496.357 310.255 494.743 310.255 491.517C310.255 489.623 311.001 488.33 312.495 487.637C314.015 486.917 316.335 486.557 319.455 486.557ZM317.855 491.477C317.855 492.863 317.921 493.757 318.055 494.157C318.215 494.557 318.495 494.757 318.895 494.757C319.321 494.757 319.708 494.423 320.055 493.757C320.428 493.063 320.615 492.117 320.615 490.917V487.197H320.335C318.681 487.197 317.855 488.41 317.855 490.837V491.477ZM329.025 477.637V476.917H340.985V477.637H338.465L343.265 490.917L347.585 477.637H344.905V476.917H350.305V477.637H348.545L342.625 495.957H338.065L330.665 477.637H329.025ZM360.218 496.357C356.778 496.357 354.192 495.477 352.458 493.717C350.752 491.93 349.898 489.463 349.898 486.317C349.898 483.143 350.858 480.717 352.778 479.037C354.725 477.357 357.192 476.517 360.178 476.517C366.232 476.517 369.138 479.557 368.898 485.637H357.618V487.197C357.618 489.81 357.952 491.783 358.618 493.117C359.285 494.45 360.445 495.117 362.098 495.117C365.192 495.117 367.218 493.463 368.178 490.157L368.898 490.277C368.392 492.197 367.472 493.69 366.138 494.757C364.832 495.823 362.858 496.357 360.218 496.357ZM357.658 484.837H361.778V482.877C361.778 480.717 361.645 479.25 361.378 478.477C361.138 477.677 360.632 477.277 359.858 477.277C359.112 477.277 358.552 477.703 358.178 478.557C357.832 479.383 357.658 480.823 357.658 482.877V484.837ZM370.853 496.357V489.197H371.333C372.026 491.517 372.959 493.143 374.133 494.077C375.306 495.01 376.773 495.477 378.533 495.477C381.253 495.477 382.613 494.61 382.613 492.877C382.613 492.13 382.279 491.57 381.613 491.197C380.573 490.61 379.239 490.157 377.613 489.837C375.799 489.357 374.279 488.717 373.053 487.917C371.586 486.957 370.853 485.437 370.853 483.357C370.853 481.277 371.493 479.623 372.773 478.397C374.053 477.143 375.759 476.517 377.893 476.517C379.199 476.517 380.546 476.823 381.933 477.437C382.439 477.65 382.826 477.757 383.093 477.757C383.359 477.757 383.586 477.663 383.773 477.477C383.959 477.29 384.186 476.943 384.453 476.437H384.893V482.557H384.413C383.053 479.09 380.946 477.357 378.093 477.357C376.839 477.357 375.906 477.583 375.293 478.037C374.679 478.463 374.373 479.01 374.373 479.677C374.373 480.077 374.466 480.397 374.653 480.637C374.839 480.85 374.986 481.01 375.093 481.117C375.199 481.223 375.373 481.343 375.613 481.477C375.853 481.583 376.053 481.677 376.213 481.757C376.373 481.81 376.613 481.89 376.933 481.997C377.279 482.103 377.533 482.17 377.693 482.197C379.506 482.65 380.813 483.05 381.613 483.397C382.413 483.717 383.173 484.117 383.893 484.597C385.359 485.61 386.093 487.25 386.093 489.517C386.093 491.757 385.426 493.463 384.093 494.637C382.759 495.783 380.933 496.357 378.613 496.357C376.959 496.357 375.359 495.97 373.813 495.197C373.493 494.983 373.239 494.877 373.053 494.877C372.466 494.877 371.893 495.37 371.333 496.357H370.853ZM414.664 504.997C415.971 504.997 416.971 504.37 417.664 503.117C418.384 501.863 418.744 500.317 418.744 498.477C418.744 496.637 418.037 494.77 416.624 492.877C414.597 495.197 411.811 496.357 408.264 496.357C404.717 496.357 401.891 495.757 399.784 494.557C397.704 493.357 396.664 491.463 396.664 488.877C396.664 487.09 397.144 485.65 398.104 484.557C399.064 483.463 400.677 482.663 402.944 482.157C400.597 480.023 399.424 477.703 399.424 475.197C399.424 472.663 400.304 470.757 402.064 469.477C403.851 468.17 406.064 467.517 408.704 467.517C411.344 467.517 413.317 467.997 414.624 468.957C415.957 469.917 416.624 471.21 416.624 472.837C416.624 475.663 414.477 477.823 410.184 479.317C410.717 479.663 411.691 480.277 413.104 481.157C416.064 483.077 418.157 484.623 419.384 485.797C419.784 483.903 420.011 481.957 420.064 479.957H416.904V479.157H423.864V479.957H421.064C421.011 482.463 420.757 484.717 420.304 486.717C421.451 487.997 422.317 489.223 422.904 490.397C423.491 491.57 423.784 493.05 423.784 494.837C423.784 497.717 422.771 500.29 420.744 502.557C418.717 504.823 416.411 505.957 413.824 505.957C412.091 505.957 410.744 505.597 409.784 504.877C408.824 504.157 408.344 503.237 408.344 502.117C408.344 500.997 408.651 500.117 409.264 499.477C409.904 498.863 410.704 498.557 411.664 498.557C413.797 498.557 414.864 499.517 414.864 501.437C414.864 501.837 414.784 502.317 414.624 502.877H413.224C412.744 504.29 413.224 504.997 414.664 504.997ZM409.224 495.317C412.051 495.317 414.291 494.223 415.944 492.037C414.717 490.757 412.997 489.37 410.784 487.877C406.971 485.37 404.544 483.663 403.504 482.757C403.104 483.61 402.904 485.343 402.904 487.957C402.904 490.57 403.424 492.45 404.464 493.597C405.504 494.743 407.091 495.317 409.224 495.317ZM408.504 468.357C407.491 468.357 406.624 468.677 405.904 469.317C405.184 469.93 404.824 470.917 404.824 472.277C404.824 473.637 405.144 474.757 405.784 475.637C406.424 476.517 407.651 477.583 409.464 478.837C410.584 478.25 411.277 477.543 411.544 476.717C411.837 475.89 411.984 474.677 411.984 473.077C411.984 469.93 410.824 468.357 408.504 468.357ZM436.542 490.237V477.637H434.342V476.917H436.542V471.757L443.982 469.917V476.917H449.182V477.637H443.982V491.117C443.982 492.37 444.102 493.29 444.342 493.877C444.609 494.463 445.142 494.757 445.942 494.757C446.742 494.757 447.435 494.357 448.022 493.557C448.635 492.757 449.035 491.663 449.222 490.277L449.902 490.357C449.689 492.197 449.102 493.663 448.142 494.757C447.182 495.823 445.595 496.357 443.382 496.357C441.169 496.357 439.475 495.917 438.302 495.037C437.129 494.157 436.542 492.557 436.542 490.237ZM463.644 478.037C462.658 478.037 461.791 478.677 461.044 479.957C460.298 481.237 459.924 482.757 459.924 484.517V495.237H462.764V495.957H450.284V495.237H452.484V477.637H450.284V476.917H459.924V480.757C460.271 479.397 460.938 478.357 461.924 477.637C462.911 476.89 464.031 476.517 465.284 476.517C466.538 476.517 467.551 476.877 468.324 477.597C469.124 478.29 469.524 479.29 469.524 480.597C469.524 481.877 469.231 482.863 468.644 483.557C468.058 484.25 467.151 484.597 465.924 484.597C464.724 484.597 463.831 484.197 463.244 483.397C462.684 482.597 462.618 481.49 463.044 480.077H464.484C465.151 478.717 464.871 478.037 463.644 478.037ZM475.969 474.157C474.556 474.157 473.542 473.797 472.929 473.077C472.342 472.357 472.049 471.463 472.049 470.397C472.049 469.33 472.369 468.45 473.009 467.757C473.676 467.063 474.676 466.717 476.009 466.717C477.342 466.717 478.356 467.037 479.049 467.677C479.742 468.29 480.089 469.183 480.089 470.357C480.089 471.503 479.756 472.423 479.089 473.117C478.422 473.81 477.382 474.157 475.969 474.157ZM469.929 476.917H479.729V495.237H481.969V495.957H470.089V495.237H472.289V477.637H469.929V476.917ZM482.784 476.917H492.424V480.597C493.304 477.877 495.238 476.517 498.224 476.517C501.238 476.517 503.064 477.957 503.704 480.837C504.638 477.957 506.598 476.517 509.584 476.517C513.504 476.517 515.464 478.743 515.464 483.197V495.237H517.704V495.957H506.624V495.237H508.024V482.237C508.024 480.21 507.851 479.023 507.504 478.677C507.344 478.517 507.131 478.437 506.864 478.437C506.091 478.437 505.411 478.957 504.824 479.997C504.238 481.037 503.944 482.357 503.944 483.957V495.237H505.384V495.957H495.104V495.237H496.504V482.237C496.504 480.21 496.331 479.023 495.984 478.677C495.824 478.517 495.611 478.437 495.344 478.437C494.598 478.437 493.918 479.01 493.304 480.157C492.718 481.277 492.424 482.623 492.424 484.197V495.237H493.864V495.957H482.784V495.237H484.984V477.637H482.784V476.917ZM519.212 496.357V489.197H519.692C520.385 491.517 521.319 493.143 522.492 494.077C523.665 495.01 525.132 495.477 526.892 495.477C529.612 495.477 530.972 494.61 530.972 492.877C530.972 492.13 530.639 491.57 529.972 491.197C528.932 490.61 527.599 490.157 525.972 489.837C524.159 489.357 522.639 488.717 521.412 487.917C519.945 486.957 519.212 485.437 519.212 483.357C519.212 481.277 519.852 479.623 521.132 478.397C522.412 477.143 524.119 476.517 526.252 476.517C527.559 476.517 528.905 476.823 530.292 477.437C530.799 477.65 531.185 477.757 531.452 477.757C531.719 477.757 531.945 477.663 532.132 477.477C532.319 477.29 532.545 476.943 532.812 476.437H533.252V482.557H532.772C531.412 479.09 529.305 477.357 526.452 477.357C525.199 477.357 524.265 477.583 523.652 478.037C523.039 478.463 522.732 479.01 522.732 479.677C522.732 480.077 522.825 480.397 523.012 480.637C523.199 480.85 523.345 481.01 523.452 481.117C523.559 481.223 523.732 481.343 523.972 481.477C524.212 481.583 524.412 481.677 524.572 481.757C524.732 481.81 524.972 481.89 525.292 481.997C525.639 482.103 525.892 482.17 526.052 482.197C527.865 482.65 529.172 483.05 529.972 483.397C530.772 483.717 531.532 484.117 532.252 484.597C533.719 485.61 534.452 487.25 534.452 489.517C534.452 491.757 533.785 493.463 532.452 494.637C531.119 495.783 529.292 496.357 526.972 496.357C525.319 496.357 523.719 495.97 522.172 495.197C521.852 494.983 521.599 494.877 521.412 494.877C520.825 494.877 520.252 495.37 519.692 496.357H519.212Z" fill="white"/>
<path d="M394.776 366.716C390.359 366.708 386.024 367.913 382.245 370.199C378.467 372.486 375.389 375.766 373.348 379.681C369.552 387.229 363.06 393.078 355.155 396.071C353.05 396.9 350.817 397.362 348.555 397.438C342.628 397.458 336.837 395.663 331.961 392.296C335.748 401.005 342.022 408.404 349.997 413.565C357.973 418.727 367.294 421.422 376.795 421.313C387.635 421.356 398.188 417.837 406.829 411.296C418.566 401.922 418.023 390.609 418.023 390.609C418.024 377.412 408.077 366.716 394.776 366.716Z" stroke="#E9C664" stroke-width="4" stroke-linecap="round" stroke-linejoin="round"/>
<path d="M487.347 397.432C485.085 397.358 482.853 396.896 480.747 396.066C472.845 393.075 466.354 387.228 462.557 379.682C460.517 375.767 457.439 372.487 453.66 370.201C449.881 367.914 445.547 366.709 441.129 366.717C427.829 366.717 417.881 377.411 417.881 390.603C417.881 390.603 417.334 401.913 429.075 411.29C437.717 417.83 448.27 421.349 459.109 421.307C468.61 421.415 477.931 418.72 485.905 413.559C493.88 408.398 500.154 401 503.941 392.292C499.066 395.659 493.274 397.453 487.347 397.432Z" stroke="#E9C664" stroke-width="4" stroke-linecap="round" stroke-linejoin="round"/>
</svg>
