<svg width="15" height="13" viewBox="0 0 15 13" fill="none" xmlns="http://www.w3.org/2000/svg">
<path d="M14.9228 1.46337C14.3656 1.71781 13.7721 1.88249 13.1639 1.95137C13.7955 1.55896 14.2683 0.954116 14.498 0.24437C13.8999 0.60334 13.2425 0.851285 12.557 0.97637C12.2732 0.662953 11.9263 0.41383 11.5394 0.245553C11.1524 0.0772755 10.7342 -0.00630284 10.3127 0.000370341C9.5089 0.00274464 8.73874 0.32474 8.17039 0.896025C7.60205 1.46731 7.28171 2.24146 7.27935 3.04937C7.26936 3.29495 7.28974 3.54084 7.34003 3.78137C6.12043 3.72419 4.92696 3.40636 3.83917 2.84905C2.75139 2.29174 1.79429 1.50776 1.03166 0.54937C0.763815 1.03507 0.617992 1.57916 0.606861 2.13437C0.603754 2.63909 0.723734 3.13688 0.956305 3.58421C1.18888 4.03154 1.52695 4.41476 1.94096 4.70037C1.4715 4.64981 1.0174 4.50276 0.606861 4.26837V4.32937C0.609988 5.04741 0.858944 5.74248 1.31188 6.29773C1.76481 6.85299 2.39411 7.23458 3.094 7.37837C2.83642 7.44871 2.57178 7.48964 2.30508 7.50037C2.10098 7.5075 1.89686 7.48699 1.69822 7.43937C1.88563 8.05381 2.26321 8.5921 2.77603 8.97591C3.28884 9.35972 3.91012 9.56903 4.54947 9.57337C3.4701 10.4544 2.1186 10.929 0.728233 10.9154C0.483913 10.9254 0.239297 10.9049 0 10.8544C1.40084 11.738 3.02202 12.2046 4.67581 12.2004C5.8251 12.2083 6.96451 11.9867 8.02785 11.5483C9.09119 11.1099 10.0573 10.4634 10.87 9.64655C11.6826 8.82966 12.3257 7.85859 12.7619 6.78975C13.1981 5.7209 13.4186 4.5756 13.4106 3.42037V2.98837C14.0152 2.59193 14.5304 2.07241 14.9228 1.46337Z" fill="#E9C664"/>
</svg>
